<svg width="112" height="112" viewBox="0 0 112 112" fill="none" xmlns="http://www.w3.org/2000/svg">
<path d="M97.5335 9.33334H14.4668C13.1054 9.33334 11.7997 9.87418 10.837 10.8369C9.87433 11.7995 9.3335 13.1052 9.3335 14.4667V97.5333C9.3335 98.8948 9.87433 100.2 10.837 101.163C11.7997 102.126 13.1054 102.667 14.4668 102.667H59.1735V66.5H47.0402V52.5H59.1735V42C58.9222 39.5349 59.2132 37.0446 60.0262 34.7039C60.8392 32.3631 62.1544 30.2286 63.8797 28.4499C65.6049 26.6713 67.6984 25.2917 70.0134 24.4078C72.3283 23.5239 74.8085 23.1572 77.2802 23.3333C80.9124 23.3083 84.543 23.4953 88.1535 23.8933V36.4933H80.7335C74.8535 36.4933 73.7335 39.2933 73.7335 43.3533V52.36H87.7335L85.9135 66.36H73.7335V102.667H97.5335C98.2076 102.667 98.8751 102.534 99.4979 102.276C100.121 102.018 100.687 101.64 101.163 101.163C101.64 100.686 102.018 100.121 102.276 99.4978C102.534 98.875 102.667 98.2075 102.667 97.5333V14.4667C102.667 13.7926 102.534 13.125 102.276 12.5022C102.018 11.8794 101.64 11.3135 101.163 10.8369C100.687 10.3602 100.121 9.98207 99.4979 9.7241C98.8751 9.46612 98.2076 9.33334 97.5335 9.33334Z" fill="black"/>
</svg>
