<svg width="114" height="114" viewBox="0 0 114 114" fill="none" xmlns="http://www.w3.org/2000/svg">
<path d="M37.05 9.5H76.95C92.15 9.5 104.5 21.85 104.5 37.05V76.95C104.5 84.2567 101.597 91.2642 96.4308 96.4308C91.2642 101.597 84.2567 104.5 76.95 104.5H37.05C21.85 104.5 9.5 92.15 9.5 76.95V37.05C9.5 29.7433 12.4026 22.7358 17.5692 17.5692C22.7358 12.4026 29.7433 9.5 37.05 9.5ZM36.1 19C31.5648 19 27.2153 20.8016 24.0085 24.0085C20.8016 27.2153 19 31.5648 19 36.1V77.9C19 87.3525 26.6475 95 36.1 95H77.9C82.4352 95 86.7847 93.1984 89.9915 89.9915C93.1984 86.7847 95 82.4352 95 77.9V36.1C95 26.6475 87.3525 19 77.9 19H36.1ZM81.9375 26.125C83.5122 26.125 85.0225 26.7506 86.1359 27.8641C87.2495 28.9776 87.875 30.4878 87.875 32.0625C87.875 33.6372 87.2495 35.1474 86.1359 36.2609C85.0225 37.3744 83.5122 38 81.9375 38C80.3628 38 78.8525 37.3744 77.7391 36.2609C76.6255 35.1474 76 33.6372 76 32.0625C76 30.4878 76.6255 28.9776 77.7391 27.8641C78.8525 26.7506 80.3628 26.125 81.9375 26.125ZM57 33.25C63.2989 33.25 69.3398 35.7522 73.7938 40.2062C78.2478 44.6602 80.75 50.7011 80.75 57C80.75 63.2989 78.2478 69.3398 73.7938 73.7938C69.3398 78.2478 63.2989 80.75 57 80.75C50.7011 80.75 44.6602 78.2478 40.2062 73.7938C35.7522 69.3398 33.25 63.2989 33.25 57C33.25 50.7011 35.7522 44.6602 40.2062 40.2062C44.6602 35.7522 50.7011 33.25 57 33.25ZM57 42.75C53.2207 42.75 49.5961 44.2513 46.9237 46.9237C44.2513 49.5961 42.75 53.2207 42.75 57C42.75 60.7793 44.2513 64.4039 46.9237 67.0763C49.5961 69.7487 53.2207 71.25 57 71.25C60.7793 71.25 64.4039 69.7487 67.0763 67.0763C69.7487 64.4039 71.25 60.7793 71.25 57C71.25 53.2207 69.7487 49.5961 67.0763 46.9237C64.4039 44.2513 60.7793 42.75 57 42.75Z" fill="black"/>
</svg>
